<?xml version="1.0" encoding="utf-8"?>
<!-- Generator: Adobe Illustrator 25.2.0, SVG Export Plug-In . SVG Version: 6.00 Build 0)  -->
<svg version="1.1" id="Layer_1" xmlns="http://www.w3.org/2000/svg" xmlns:xlink="http://www.w3.org/1999/xlink" x="0px" y="0px"
	 viewBox="0 0 257.33 400" style="enable-background:new 0 0 257.33 400;" xml:space="preserve">
<style type="text/css">
	.st0{fill:url(#SVGID_1_);}
	.st1{fill:url(#SVGID_2_);}
	.st2{fill:url(#SVGID_3_);stroke:#A78978;stroke-linecap:round;stroke-linejoin:round;stroke-miterlimit:10;}
	.st3{fill:url(#SVGID_4_);}
	.st4{fill:#A78978;}
	.st5{fill:url(#SVGID_5_);}
	.st6{fill:url(#SVGID_6_);}
	.st7{fill:#BA092F;}
	.st8{opacity:0.6;fill:url(#SVGID_7_);}
	.st9{fill:url(#SVGID_8_);}
	.st10{fill:url(#SVGID_9_);}
	.st11{fill:#4E2F00;}
	.st12{fill:#794F27;}
	.st13{opacity:0.4;fill:#4E2F00;}
	.st14{fill:url(#SVGID_10_);}
	.st15{fill:url(#SVGID_11_);}
	.st16{opacity:0.7;fill:url(#SVGID_12_);}
	.st17{fill:url(#SVGID_13_);}
	.st18{fill:url(#SVGID_14_);}
	.st19{fill:url(#SVGID_15_);}
	.st20{opacity:0.8;fill:url(#SVGID_16_);}
	.st21{fill:url(#SVGID_17_);}
	.st22{fill:url(#SVGID_18_);}
	.st23{fill:url(#SVGID_19_);}
	.st24{fill:#FFFFFF;}
	.st25{opacity:0.7;fill:url(#SVGID_20_);}
	.st26{fill:url(#SVGID_21_);}
	.st27{fill:url(#SVGID_22_);}
	.st28{opacity:0.8;fill:url(#SVGID_23_);}
	.st29{fill:url(#SVGID_24_);}
	.st30{fill:url(#SVGID_25_);}
	.st31{fill:url(#SVGID_26_);}
</style>
<g>
	<radialGradient id="SVGID_1_" cx="49.4977" cy="21.15" r="268.4799" gradientUnits="userSpaceOnUse">
		<stop  offset="0" style="stop-color:#FFFFFF"/>
		<stop  offset="0.506" style="stop-color:#F0EEE8"/>
		<stop  offset="1" style="stop-color:#C0C0C0"/>
	</radialGradient>
	<path class="st0" d="M184.99,164.24c1.66-7.77,2.03-16.47,0.78-25.97c-6.91-52.71-38.75-80.99-62.49-77.08
		c-30.61,5.05-43.77,47.23-39.71,83.95c-8.27-12.53-19.28-18.93-28.92-17.94c-35.58,3.63-43.14,77.98-15.45,96.2
		c27.69,18.22,59.35-0.29,56.74-38.3c-0.06-0.91-0.15-1.81-0.23-2.71c3.9,5.98,8.68,10.85,14.35,14.1
		c22.35,12.8,45.42,9.63,60.3-4.8c-0.81,3.25-1.52,7.95-0.72,13.08c0,0,11.24-37.89,30.8-47.91
		C200.44,156.88,192.32,157.67,184.99,164.24z"/>
	<radialGradient id="SVGID_2_" cx="145.6848" cy="339.5416" r="199.2239" gradientUnits="userSpaceOnUse">
		<stop  offset="0" style="stop-color:#FFFFFF"/>
		<stop  offset="0.506" style="stop-color:#F0EEE8"/>
		<stop  offset="1" style="stop-color:#C0C0C0"/>
	</radialGradient>
	<path class="st1" d="M21.84,241.12c0,0-9.13,19.55,16.62,27.38c0,0,15.64,6.52,23.79,27.05c8.15,20.53,12.71,86.69,60.29,95.49
		c47.58,8.8,80.17-23.14,78.54-68.11c-1.63-44.97-4.89-94.84,7.17-126.77c0,0,7.82,5.22,10.43,22.16c0,0,1.3-50.84-28.35-28.03
		c0,0-4.24,3.26-6.52,9.12c0,0,7.82-5.54,13.36-4.24c0,0-23.46,30.31-87.01,54.43C46.61,273.71,27.38,264.26,21.84,241.12z"/>
	<g>
		
			<radialGradient id="SVGID_3_" cx="150.4244" cy="329.3005" r="174.587" gradientTransform="matrix(0.9905 -0.1376 0.1376 0.9905 -32.7642 70.9037)" gradientUnits="userSpaceOnUse">
			<stop  offset="0" style="stop-color:#FFFFFF"/>
			<stop  offset="0.5037" style="stop-color:#E03000"/>
			<stop  offset="1" style="stop-color:#510900"/>
		</radialGradient>
		<path class="st2" d="M206.39,191.39c0,0-37.14,46.94-115.77,68.82c-25.4,7.07-41.5,7.75-51.66,5.45c0,0,14.6,1.42,27.69,34.76
			c13.08,33.34,18.37,97.67,82.89,83.91c58.37-12.45,46.84-73.44,46.32-113.32C195.32,231.12,199.37,210.74,206.39,191.39z"/>
		
			<radialGradient id="SVGID_4_" cx="154.0965" cy="314.2054" r="173.6243" gradientTransform="matrix(0.9905 -0.1376 0.1376 0.9905 -32.7642 70.9037)" gradientUnits="userSpaceOnUse">
			<stop  offset="0" style="stop-color:#FFFFFF"/>
			<stop  offset="1" style="stop-color:#EA4656"/>
		</radialGradient>
		<path class="st3" d="M134.73,280.74c24-8.11,45.13-8.78,61.55,3.55c-0.21-4.61-0.38-9.07-0.44-13.29
			c-0.52-39.88,3.53-60.26,10.54-79.61c0,0-37.14,46.94-115.77,68.82c-24.81,6.91-40.73,7.71-50.93,5.59
			c3.11,0.79,15.6,5.68,26.95,34.61c6.1,15.55,10.51,37.83,20.01,55.8C81.76,321.13,106.13,290.4,134.73,280.74z"/>
		<path class="st4" d="M193.53,193.24c0,0,1.28-1.2,3.67-2.35c0.61-0.25,1.26-0.57,2-0.76c0.72-0.25,1.52-0.41,2.35-0.54
			c0.41-0.09,0.85-0.06,1.29-0.09c0.44-0.02,0.88-0.06,1.33,0.04c0.44,0.06,0.89,0.12,1.34,0.18c0.44,0.12,0.88,0.27,1.32,0.41
			l0.65,0.22l0.6,0.34c0.39,0.23,0.79,0.46,1.18,0.68c0.7,0.56,1.35,1.16,1.94,1.76c0.52,0.66,1,1.32,1.44,1.94
			c0.36,0.67,0.67,1.32,0.96,1.91c0.14,0.3,0.29,0.57,0.41,0.85c0.09,0.29,0.17,0.56,0.25,0.81c0.15,0.51,0.29,0.95,0.4,1.32
			c0.21,0.73,0.31,1.15,0.31,1.15s-0.21-0.38-0.56-1.05c-0.17-0.34-0.38-0.74-0.61-1.21c-0.12-0.23-0.24-0.48-0.37-0.74
			c-0.16-0.25-0.33-0.5-0.5-0.77c-0.34-0.53-0.72-1.1-1.11-1.71c-0.48-0.54-0.98-1.09-1.47-1.69c-0.56-0.52-1.2-1-1.81-1.5
			l-1.05-0.58l-0.53-0.29l-0.57-0.18c-0.38-0.12-0.76-0.27-1.14-0.38c-0.4-0.06-0.8-0.12-1.18-0.18c-0.39-0.09-0.79-0.06-1.19-0.07
			c-0.39,0.01-0.79-0.05-1.17,0.02c-0.77,0.09-1.52,0.15-2.22,0.33c-0.71,0.12-1.36,0.35-1.97,0.51c-0.6,0.21-1.16,0.39-1.64,0.58
			c-0.48,0.19-0.91,0.37-1.24,0.53C193.91,193.04,193.53,193.24,193.53,193.24z"/>
		<g>
			
				<radialGradient id="SVGID_5_" cx="139.5702" cy="215.7883" r="60.9948" gradientTransform="matrix(0.9905 -0.1376 0.1376 0.9905 -32.7642 70.9037)" gradientUnits="userSpaceOnUse">
				<stop  offset="0.1908" style="stop-color:#FFFFFF"/>
				<stop  offset="0.5616" style="stop-color:#F0EEE8"/>
				<stop  offset="1" style="stop-color:#C0C0C0"/>
			</radialGradient>
			<path class="st5" d="M127.77,278.68c39.11-15.56,46.82-37.83,44.73-56.21c-19,13.52-46.11,28.6-81.78,38.53
				c-3.53,0.98-6.86,1.83-10.04,2.58C83.97,274.33,94.49,291.92,127.77,278.68z"/>
			
				<radialGradient id="SVGID_6_" cx="131.9823" cy="262.721" r="71.6126" gradientTransform="matrix(0.9905 -0.1376 0.1376 0.9905 -32.7642 70.9037)" gradientUnits="userSpaceOnUse">
				<stop  offset="0" style="stop-color:#FFFFFF"/>
				<stop  offset="1" style="stop-color:#E52A12"/>
			</radialGradient>
			<path class="st6" d="M153.97,324.13c-41.09,6.9-43.38,42.09-36.48,59.56c8.59,2.46,18.93,2.77,31.55,0.08
				c44.95-9.59,48.44-47.97,47.44-83.33C168.14,296.07,153.97,324.13,153.97,324.13z"/>
		</g>
		<path class="st7" d="M160.71,314.6c0,0-0.5,0.5-1.27,1.44c-0.37,0.48-0.84,1.05-1.31,1.75c-0.49,0.69-0.99,1.5-1.51,2.39
			c-0.54,0.88-1.02,1.9-1.54,2.96c-0.45,1.1-0.95,2.23-1.32,3.47c-0.46,1.21-0.72,2.51-1.04,3.82c-0.32,1.31-0.42,2.68-0.64,4.03
			c-0.04,1.37-0.18,2.74-0.16,4.09c0.1,1.35,0.07,2.69,0.21,3.97c0.19,1.28,0.34,2.52,0.49,3.7c0.23,1.17,0.5,2.26,0.73,3.27
			c0.23,1.02,0.43,1.95,0.71,2.75c0.25,0.81,0.47,1.52,0.65,2.1c0.35,1.17,0.54,1.85,0.54,1.85s-0.29-0.64-0.79-1.75
			c-0.24-0.56-0.54-1.25-0.88-2.03c-0.16-0.4-0.36-0.81-0.53-1.26c-0.14-0.46-0.29-0.94-0.44-1.45c-0.3-1.01-0.66-2.1-0.96-3.28
			c-0.23-1.19-0.49-2.45-0.71-3.76c-0.18-1.31-0.24-2.69-0.34-4.08c-0.04-1.4,0.08-2.82,0.12-4.24c0.24-1.4,0.36-2.83,0.71-4.19
			c0.34-1.36,0.69-2.7,1.19-3.93c0.41-1.27,1.03-2.41,1.56-3.5c0.6-1.06,1.16-2.07,1.78-2.94c0.3-0.43,0.6-0.85,0.88-1.24
			c0.31-0.37,0.61-0.72,0.88-1.05c0.55-0.66,1.09-1.19,1.51-1.63C160.14,315,160.71,314.6,160.71,314.6z"/>
		
			<radialGradient id="SVGID_7_" cx="131.9823" cy="262.721" r="71.6126" gradientTransform="matrix(0.9905 -0.1376 0.1376 0.9905 -32.7642 70.9037)" gradientUnits="userSpaceOnUse">
			<stop  offset="0" style="stop-color:#FFFFFF"/>
			<stop  offset="1" style="stop-color:#E40E23"/>
		</radialGradient>
		<path class="st8" d="M153.97,324.13c-41.09,6.9-43.38,42.09-36.48,59.56c8.59,2.46,18.93,2.77,31.55,0.08
			c44.95-9.59,48.44-47.97,47.44-83.33C168.14,296.07,153.97,324.13,153.97,324.13z M154.4,377.88
			c-39.6,13.67-45.69-26.81-25.38-42.19c18.02-13.65,22.75,8.63,22.75,8.63c-4.82-27.82,27.07-48.09,35.99-35.63
			C196.68,321.15,193.47,364.4,154.4,377.88z"/>
		
			<radialGradient id="SVGID_8_" cx="142.9621" cy="221.3859" r="70.6238" gradientTransform="matrix(0.9905 -0.1376 0.1376 0.9905 -32.7642 70.9037)" gradientUnits="userSpaceOnUse">
			<stop  offset="0" style="stop-color:#FFFFFF"/>
			<stop  offset="0.506" style="stop-color:#F0EEE8"/>
			<stop  offset="1" style="stop-color:#C0C0C0"/>
		</radialGradient>
		<path class="st9" d="M98.36,282.34c-0.01,0-13.09-6.32-9.03-14.13c4.66-8.96,24.38-2.68,64.82-31.35c9.65-6.84,17.86,5.74,8.25,19
			c9.28-11.08,11.31-22.88,10.11-33.4c-19,13.52-46.11,28.6-81.78,38.53c-3.53,0.98-6.86,1.83-10.04,2.58
			C82.69,270.15,87.41,279.26,98.36,282.34z"/>
		<path class="st4" d="M22.45,242.8c0,0-0.22,0.84-0.35,2.45c-0.1,1.6-0.15,4.02,0.68,6.91c0.43,1.43,1.03,3,2.03,4.5
			c0.99,1.5,2.32,2.95,3.96,4.22c1.66,1.25,3.64,2.27,5.8,3.12c2.21,0.74,4.57,1.44,7.12,1.77c5.07,0.78,10.68,0.77,16.55,0.24
			c5.88-0.53,12.02-1.58,18.33-2.91c3.14-0.75,6.34-1.42,9.54-2.32c1.59-0.43,3.24-0.84,4.82-1.3c1.61-0.5,3.22-1,4.84-1.5
			c3.23-1.02,6.53-1.97,9.77-3.07c3.21-1.18,6.43-2.37,9.66-3.56c3.26-1.09,6.37-2.58,9.54-3.87c1.58-0.67,3.15-1.33,4.72-1.99
			c1.57-0.67,3.08-1.46,4.61-2.17c3.03-1.5,6.11-2.85,9.03-4.44c2.92-1.58,5.8-3.14,8.64-4.67c2.77-1.66,5.49-3.28,8.15-4.87
			c2.68-1.56,5.16-3.33,7.65-4.92c2.5-1.58,4.81-3.3,7.08-4.91c1.13-0.81,2.24-1.61,3.33-2.4c1.06-0.82,2.1-1.63,3.12-2.42
			c1.02-0.79,2.02-1.57,3-2.33c0.97-0.76,1.87-1.56,2.79-2.3c1.81-1.51,3.55-2.9,5.1-4.33c3.16-2.76,5.81-5.29,7.96-7.4
			c4.29-4.25,6.47-6.92,6.47-6.92s-2.12,2.73-6.3,7.09c-2.1,2.17-4.69,4.77-7.79,7.61c-1.52,1.46-3.23,2.9-5.01,4.46
			c-1.76,1.57-3.7,3.12-5.73,4.73c-1.01,0.81-2.04,1.64-3.1,2.48c-1.08,0.8-2.19,1.62-3.31,2.45c-2.25,1.65-4.55,3.41-7.04,5.02
			c-2.48,1.63-4.95,3.44-7.62,5.04c-2.66,1.62-5.39,3.27-8.16,4.95c-2.84,1.55-5.74,3.13-8.66,4.73c-2.92,1.61-6.01,2.98-9.06,4.5
			c-1.54,0.73-3.05,1.53-4.62,2.2c-1.57,0.67-3.15,1.35-4.74,2.03c-1.58,0.68-3.17,1.35-4.76,2.03c-1.58,0.71-3.2,1.32-4.82,1.9
			c-3.25,1.18-6.51,2.36-9.75,3.54c-3.26,1.09-6.55,2.02-9.79,3.04c-1.62,0.49-3.24,0.99-4.85,1.48c-1.65,0.47-3.26,0.86-4.88,1.3
			c-3.21,0.88-6.44,1.55-9.6,2.29c-6.35,1.33-12.56,2.28-18.49,2.75c-5.93,0.46-11.61,0.39-16.75-0.47c-2.58-0.37-5-1.1-7.23-1.91
			c-2.2-0.92-4.2-2.01-5.87-3.34c-1.65-1.35-2.97-2.87-3.95-4.42c-0.98-1.56-1.56-3.16-1.96-4.62c-0.77-2.95-0.65-5.37-0.52-6.98
			C22.21,243.63,22.45,242.8,22.45,242.8z"/>
		<path class="st4" d="M22.45,242.8c0,0-0.22,0.84-0.34,2.45c-0.11,1.6-0.13,4.01,0.67,6.91c0.77,2.88,2.7,6.18,6.02,8.69
			c3.3,2.54,7.85,4.13,12.91,4.9c5.08,0.75,10.66,0.79,16.54,0.26c5.87-0.59,12.03-1.55,18.32-2.96c1.57-0.35,3.16-0.7,4.75-1.05
			c1.59-0.41,3.18-0.83,4.79-1.25c1.6-0.43,3.24-0.83,4.82-1.29c1.6-0.5,3.22-1,4.84-1.5c3.23-1.02,6.53-1.97,9.77-3.07
			c3.21-1.18,6.43-2.37,9.66-3.56c3.26-1.1,6.37-2.58,9.54-3.87c1.58-0.67,3.15-1.33,4.72-1.99c1.57-0.67,3.08-1.46,4.61-2.17
			c3.03-1.5,6.12-2.85,9.03-4.44c2.92-1.58,5.8-3.14,8.64-4.67c2.77-1.65,5.49-3.28,8.15-4.87c2.68-1.56,5.16-3.33,7.66-4.92
			c2.5-1.58,4.81-3.3,7.08-4.91c1.13-0.81,2.24-1.61,3.33-2.4c1.06-0.82,2.1-1.63,3.12-2.42c1.02-0.79,2.02-1.57,3-2.33
			c0.97-0.76,1.88-1.56,2.79-2.31c1.81-1.5,3.55-2.9,5.1-4.32c3.16-2.76,5.81-5.29,7.96-7.4c4.29-4.25,6.47-6.92,6.47-6.92
			s-2.12,2.73-6.3,7.09c-2.1,2.17-4.69,4.77-7.79,7.61c-1.51,1.46-3.23,2.9-5,4.46c-1.76,1.58-3.7,3.13-5.73,4.73
			c-1.01,0.81-2.05,1.63-3.1,2.47c-1.08,0.8-2.18,1.62-3.31,2.45c-2.25,1.64-4.55,3.41-7.04,5.03c-2.48,1.63-4.95,3.43-7.62,5.04
			c-2.67,1.62-5.39,3.27-8.16,4.95c-2.84,1.55-5.73,3.13-8.66,4.73c-2.92,1.61-6.01,2.98-9.06,4.5c-1.54,0.73-3.04,1.53-4.62,2.2
			c-1.57,0.67-3.16,1.35-4.74,2.03c-1.58,0.68-3.17,1.35-4.75,2.03c-1.58,0.71-3.2,1.32-4.83,1.9c-3.25,1.18-6.5,2.36-9.75,3.54
			c-3.26,1.09-6.55,2.02-9.79,3.03c-1.63,0.5-3.24,0.99-4.85,1.48c-1.65,0.47-3.26,0.85-4.88,1.28c-1.61,0.41-3.22,0.83-4.81,1.23
			c-1.61,0.35-3.21,0.69-4.79,1.03c-6.33,1.42-12.56,2.27-18.48,2.79c-5.92,0.46-11.62,0.34-16.76-0.49
			c-5.12-0.83-9.76-2.58-13.08-5.27c-3.35-2.65-5.23-6.08-5.94-9.01c-0.74-2.95-0.65-5.37-0.51-6.98
			C22.2,243.63,22.45,242.8,22.45,242.8z"/>
	</g>
	
		<radialGradient id="SVGID_9_" cx="160.8785" cy="-235.6551" r="74.7525" gradientTransform="matrix(0.8453 -0.5343 0.5343 0.8453 65.4541 277.5528)" gradientUnits="userSpaceOnUse">
		<stop  offset="0" style="stop-color:#FFFFFF"/>
		<stop  offset="0.506" style="stop-color:#F0EEE8"/>
		<stop  offset="1" style="stop-color:#C0C0C0"/>
	</radialGradient>
	<path class="st10" d="M83.23,62.56c0.1,0.09,0.21,0.15,0.32,0.21c0.04,0.02,0.09,0.06,0.13,0.08c0.16,0.05,0.31,0.08,0.47,0.06
		c2.86-0.42,3.71-20.1,22.83-30.45c18.34-9.93,34.79-5.71,36.47-8.81c0-0.01,0.01-0.02,0.02-0.03c0.06-0.13,0.11-0.26,0.13-0.4
		c0.01-0.12,0-0.26-0.05-0.41c-0.01-0.02-0.03-0.05-0.03-0.08c-0.05-0.13-0.1-0.27-0.19-0.42c-0.01-0.02-0.02-0.04-0.03-0.05
		c-3.17-5.37-30.34-21.45-48.2-8.91c-13.86,9.74-15.88,31.77-14.12,42.88v0c0,0.01,0,0.02,0,0.03c0.08,0.5,0.17,0.97,0.26,1.42
		c0.01,0.05,0.02,0.1,0.04,0.16c0.09,0.4,0.18,0.78,0.27,1.15c0.02,0.08,0.04,0.15,0.06,0.22c0.09,0.32,0.19,0.63,0.29,0.91
		c0.03,0.08,0.05,0.17,0.08,0.25c0.09,0.25,0.19,0.49,0.29,0.71c0.04,0.08,0.07,0.17,0.11,0.24c0.09,0.19,0.19,0.36,0.29,0.52
		c0.04,0.07,0.09,0.15,0.13,0.21c0.1,0.14,0.2,0.25,0.3,0.36C83.13,62.46,83.18,62.52,83.23,62.56z"/>
	<g>
		<path class="st11" d="M82.2,60.21c2.86-0.42,3.71-20.1,22.83-30.45c19.13-10.35,36.2-5.32,36.62-9.25
			c0.41-3.93-29.39-23.3-48.5-9.87C74.03,24.07,77.44,60.91,82.2,60.21z"/>
		<path class="st12" d="M82.2,60.21c0.09-0.01,0.18-0.04,0.26-0.09c-2.23-10.44-0.75-34.26,13.82-44.5
			c14.99-10.53,36.56-0.88,44.96,5.66c0.23-0.21,0.37-0.45,0.4-0.76c0.41-3.93-29.39-23.3-48.5-9.87
			C74.03,24.07,77.44,60.91,82.2,60.21z"/>
		<path class="st13" d="M136.84,15.37c0.07,0.2,0.12,0.38,0.1,0.53c-0.41,3.93-17.49-1.1-36.62,9.25
			c-15.55,8.42-19.02,23-21.31,28.38c0.67,4.22,1.87,6.87,3.18,6.68c2.86-0.42,3.71-20.1,22.83-30.45
			c19.13-10.35,36.2-5.32,36.62-9.25C141.75,19.53,139.93,17.55,136.84,15.37z"/>
	</g>
	
		<radialGradient id="SVGID_10_" cx="133.2208" cy="-10.2605" r="99.9988" gradientTransform="matrix(0.9605 -0.2783 0.2783 0.9605 -15.8564 147.5119)" gradientUnits="userSpaceOnUse">
		<stop  offset="0.3482" style="stop-color:#F8F8F6"/>
		<stop  offset="1" style="stop-color:#C0C0AC"/>
	</radialGradient>
	<path class="st14" d="M123.96,66.19c22.12-3.65,51.77,22.67,58.19,71.72c6.42,49.06-33.17,75.6-70.54,54.21
		C74.24,170.74,78.09,73.76,123.96,66.19z"/>
	
		<radialGradient id="SVGID_11_" cx="57.5308" cy="-113.9923" r="213.6715" gradientTransform="matrix(0.8858 -0.2567 0.2587 0.8926 40.3746 153.032)" gradientUnits="userSpaceOnUse">
		<stop  offset="0" style="stop-color:#FFFFFF"/>
		<stop  offset="1" style="stop-color:#C0C0AC"/>
	</radialGradient>
	<path class="st15" d="M124.43,68.11c20.4-3.35,47.81,21.15,53.83,66.72c6.02,45.57-30.46,70.15-64.99,50.21
		C78.75,165.12,82.13,75.06,124.43,68.11z"/>
	
		<radialGradient id="SVGID_12_" cx="128.2335" cy="14.1916" r="74.5082" gradientTransform="matrix(0.9605 -0.2783 0.2783 0.9605 -15.8564 147.5119)" gradientUnits="userSpaceOnUse">
		<stop  offset="0.5336" style="stop-color:#FFFFFF"/>
		<stop  offset="1" style="stop-color:#C0C0AC"/>
	</radialGradient>
	<path class="st16" d="M137.91,67.56c1.38,0.6,2.74,1.36,4.05,2.33c8.05,5.97,12.75,15.26,16.57,24.28
		c4.91,11.6,8.15,24.07,9.41,36.62c3.46,34.66-16.79,49.72-51.67,39.59c-9.62-2.79-19.6-6.74-27.13-13.45
		c5.11,4.55,7.26,17.38,11.86,23.38c5.64,7.36,14.51,16.11,23.63,18.17c49.46,11.22,61.82-27.78,57.52-60.57
		C177.02,98.68,157.02,74.01,137.91,67.56z"/>
	<g>
		
			<radialGradient id="SVGID_13_" cx="70.041" cy="-74.8676" r="71.6697" gradientTransform="matrix(0.9759 -0.2184 0.2184 0.9759 -9.1335 241.8348)" gradientUnits="userSpaceOnUse">
			<stop  offset="0.3482" style="stop-color:#F8F8F6"/>
			<stop  offset="1" style="stop-color:#C0C0AC"/>
		</radialGradient>
		<path class="st17" d="M54.92,129.52c15.98-1.63,36.03,18.51,38.45,53.89c2.42,35.38-27.07,52.61-52.86,35.66
			C14.72,202.11,21.77,132.91,54.92,129.52z"/>
		
			<radialGradient id="SVGID_14_" cx="-1.1765" cy="-160.8131" r="153.1477" gradientTransform="matrix(0.8999 -0.2014 0.203 0.9069 45.5048 251.1463)" gradientUnits="userSpaceOnUse">
			<stop  offset="0" style="stop-color:#FFFFFF"/>
			<stop  offset="1" style="stop-color:#C0C0AC"/>
		</radialGradient>
		<path class="st18" d="M55.17,130.92c14.74-1.49,33.27,17.25,35.56,50.11c2.29,32.87-24.9,48.83-48.71,33.04
			C18.19,198.29,24.6,134.02,55.17,130.92z"/>
		<g>
			<g>
				
					<radialGradient id="SVGID_15_" cx="94.3677" cy="-66.4238" r="53.3821" gradientTransform="matrix(0.9759 -0.2184 0.2184 0.9759 -9.1335 241.8348)" gradientUnits="userSpaceOnUse">
					<stop  offset="0.179" style="stop-color:#FFB848"/>
					<stop  offset="0.2302" style="stop-color:#FCB344"/>
					<stop  offset="0.7423" style="stop-color:#E28621"/>
					<stop  offset="1" style="stop-color:#D87413"/>
				</radialGradient>
				<path class="st19" d="M44.75,185.38c1.73,15.44,11.68,26.42,22.23,24.47c10.55-1.95,17.68-16.06,15.96-31.52
					c-1.73-15.46-11.69-26.41-22.22-24.46C50.16,155.81,43.02,169.92,44.75,185.38z"/>
				
					<radialGradient id="SVGID_16_" cx="92.2222" cy="-66.0662" r="46.6737" gradientTransform="matrix(0.9759 -0.2184 0.2184 0.9759 -9.1335 241.8348)" gradientUnits="userSpaceOnUse">
					<stop  offset="0" style="stop-color:#FFB848"/>
					<stop  offset="0.107" style="stop-color:#FBB43F"/>
					<stop  offset="0.7011" style="stop-color:#E7A212"/>
					<stop  offset="1" style="stop-color:#DF9B00"/>
				</radialGradient>
				<path class="st20" d="M46.16,182.6c1.53,13.17,10.61,22.46,20.29,20.75c9.67-1.71,16.29-13.77,14.76-26.93
					c-1.53-13.17-10.61-22.46-20.3-20.75C51.24,157.37,44.63,169.44,46.16,182.6z"/>
				
					<linearGradient id="SVGID_17_" gradientUnits="userSpaceOnUse" x1="60.6809" y1="180.4342" x2="38.2426" y2="149.1814" gradientTransform="matrix(1.0565 0.078 -0.0737 1.0836 29.3844 7.1485)">
					<stop  offset="0.4051" style="stop-color:#FFFFFF"/>
					<stop  offset="0.7697" style="stop-color:#D3BA1C"/>
					<stop  offset="0.7755" style="stop-color:#D2B81B"/>
					<stop  offset="0.9249" style="stop-color:#B78B08"/>
					<stop  offset="1" style="stop-color:#AC7900"/>
				</linearGradient>
				<path class="st21" d="M53.03,186.12c1.13,9.76,7.88,16.66,15.05,15.38c7.18-1.27,12.08-10.22,10.94-19.97
					c-1.12-9.77-7.87-16.65-15.05-15.39C56.8,167.41,51.9,176.35,53.03,186.12z"/>
				
					<radialGradient id="SVGID_18_" cx="86.443" cy="-42.5086" r="16.1396" gradientTransform="matrix(0.9759 -0.2184 0.2184 0.9759 -9.1335 241.8348)" gradientUnits="userSpaceOnUse">
					<stop  offset="0" style="stop-color:#AC7900"/>
					<stop  offset="0.3262" style="stop-color:#B78B08"/>
					<stop  offset="0.9748" style="stop-color:#D2B81B"/>
					<stop  offset="1" style="stop-color:#D3BA1C"/>
				</radialGradient>
				<path class="st22" d="M55.3,186.14c0.91,7.84,6.33,13.38,12.08,12.36c5.77-1.02,9.71-8.21,8.79-16.04
					c-0.9-7.85-6.32-13.37-12.08-12.36C58.33,171.12,54.4,178.3,55.3,186.14z"/>
				
					<radialGradient id="SVGID_19_" cx="62.6029" cy="-172.9222" r="50.5586" gradientTransform="matrix(1.0376 -0.2148 0.2117 1.065 40.2738 427.8529)" gradientUnits="userSpaceOnUse">
					<stop  offset="0" style="stop-color:#FFB848"/>
					<stop  offset="0.21" style="stop-color:#D49837"/>
					<stop  offset="0.5903" style="stop-color:#8A6319"/>
					<stop  offset="0.8633" style="stop-color:#5D4207"/>
					<stop  offset="1" style="stop-color:#4B3500"/>
				</radialGradient>
				<path class="st23" d="M57.88,185.44c0.68,5.91,4.76,10.08,9.1,9.31c4.34-0.77,7.31-6.18,6.62-12.09
					c-0.68-5.9-4.76-10.07-9.11-9.3C60.16,174.12,57.2,179.54,57.88,185.44z"/>
			</g>
			<path class="st24" d="M60.76,162.34c-0.02-0.05-0.04-0.09-0.07-0.13c-0.44-1.23-1.26-1.99-2.28-2.32
				c-0.48-0.18-1.01-0.23-1.53-0.17c-0.66,0.03-1.34,0.19-1.99,0.48c-1.05,0.47-2.06,1.27-2.94,2.25c-0.67,0.65-1.27,1.37-1.71,2.04
				c-2.13,3.19-3.52,9.45,0.68,11.59c4.3,2.21,7.88-3.83,9.07-7.13c0.47-1.28,0.92-2.8,1.01-4.28
				C61.1,163.82,61.06,163,60.76,162.34z"/>
			<path class="st24" d="M51.87,180.82c-0.52-0.52-1.24-0.46-1.88-0.17c-0.41,0.02-0.83,0.16-1.19,0.45c-1,0.81-1.41,2.27-1.47,3.53
				c-0.06,1.57,0.98,3.35,2.72,2.96C52.65,187.03,53.69,182.64,51.87,180.82z"/>
		</g>
		
			<radialGradient id="SVGID_20_" cx="66.4664" cy="-57.3412" r="53.4006" gradientTransform="matrix(0.9759 -0.2184 0.2184 0.9759 -9.1335 241.8348)" gradientUnits="userSpaceOnUse">
			<stop  offset="0.5336" style="stop-color:#FFFFFF"/>
			<stop  offset="1" style="stop-color:#C0C0AC"/>
		</radialGradient>
		<path class="st25" d="M64.84,131.12c0.96,0.49,1.9,1.09,2.79,1.85c5.49,4.63,8.44,11.48,10.78,18.11c3,8.51,4.77,17.58,5.11,26.61
			c0.94,24.95-14.21,34.82-38.71,26.03c-6.75-2.42-13.72-5.69-18.81-10.82c3.45,3.48,4.43,12.75,7.45,17.25
			c3.71,5.52,9.67,12.16,16.1,14.05c34.89,10.22,45.45-17.13,43.83-40.78C91.43,155.11,78.22,136.58,64.84,131.12z"/>
	</g>
	<g>
		
			<radialGradient id="SVGID_21_" cx="43.9023" cy="-65.3568" r="99.299" gradientTransform="matrix(0.9771 -0.2128 0.2128 0.9771 -7.5749 93.1742)" gradientUnits="userSpaceOnUse">
			<stop  offset="0" style="stop-color:#FFFFFF"/>
			<stop  offset="0.506" style="stop-color:#F0EEE8"/>
			<stop  offset="1" style="stop-color:#C0C0C0"/>
		</radialGradient>
		<path class="st26" d="M16.7,97.57c0.01,0.02,0.03,0.04,0.04,0.06c0.05,0.07,0.11,0.12,0.17,0.14c1.66,0.43,2.35-11.71,13.39-10.35
			c17.22,2.11,36.63,24.2,38.99,21.83c0.06-0.06,0.1-0.16,0.13-0.27c0-0.02,0.01-0.03,0.01-0.04c0.02-0.12,0.03-0.26,0.02-0.42
			c0-0.03,0-0.05,0-0.08c-0.01-0.17-0.04-0.36-0.08-0.58c-0.01-0.03-0.01-0.05-0.02-0.08c-0.15-0.72-0.44-1.68-0.87-2.82
			c-0.01-0.01-0.01-0.03-0.02-0.04c-0.15-0.38-0.31-0.78-0.48-1.2c-0.01-0.02-0.01-0.04-0.02-0.06c-0.17-0.42-0.36-0.86-0.57-1.32
			c0,0,0,0,0,0c-0.97-2.18-2.25-4.75-3.78-7.51c-0.01-0.02-0.02-0.04-0.03-0.06c-0.55-1-1.14-2.04-1.76-3.08
			c-0.02-0.04-0.05-0.08-0.07-0.12c-0.61-1.03-1.24-2.08-1.9-3.13c-0.03-0.06-0.07-0.11-0.1-0.17c-0.33-0.52-0.66-1.05-1.01-1.58
			c-0.01-0.01-0.02-0.03-0.03-0.05c-0.33-0.51-0.66-1.01-1-1.52c-0.04-0.06-0.08-0.12-0.12-0.19c-0.35-0.51-0.69-1.03-1.05-1.54
			c-0.04-0.06-0.08-0.11-0.11-0.17c-0.33-0.47-0.66-0.95-1-1.42c-0.04-0.06-0.09-0.12-0.13-0.19c-0.36-0.5-0.72-0.99-1.08-1.49
			c-0.06-0.08-0.12-0.16-0.18-0.24c-0.33-0.45-0.67-0.9-1.02-1.34c-0.04-0.06-0.09-0.11-0.13-0.17c-0.37-0.48-0.74-0.95-1.11-1.41
			c-0.08-0.1-0.15-0.19-0.23-0.28c-0.36-0.44-0.71-0.87-1.07-1.3c-0.03-0.03-0.06-0.07-0.09-0.1c-0.38-0.45-0.76-0.89-1.15-1.33
			c-0.09-0.1-0.17-0.2-0.26-0.3c-0.77-0.87-1.55-1.71-2.34-2.52c-0.09-0.09-0.19-0.19-0.28-0.28c-0.39-0.4-0.78-0.78-1.18-1.16
			c-0.04-0.04-0.08-0.07-0.11-0.11c-0.36-0.35-0.73-0.68-1.09-1.01c-0.09-0.08-0.18-0.17-0.28-0.25c-0.39-0.35-0.78-0.69-1.17-1.01
			c-0.06-0.05-0.12-0.1-0.18-0.15c-0.35-0.29-0.7-0.56-1.05-0.83c-0.09-0.07-0.18-0.14-0.26-0.2c-0.39-0.29-0.78-0.58-1.18-0.84
			c-0.08-0.05-0.16-0.11-0.24-0.16c-0.34-0.23-0.69-0.45-1.03-0.66c-0.08-0.05-0.16-0.1-0.24-0.15c-0.39-0.23-0.78-0.45-1.17-0.66
			c-0.09-0.05-0.17-0.09-0.26-0.13c-0.35-0.18-0.7-0.34-1.04-0.5c-0.06-0.03-0.12-0.06-0.18-0.08c-0.39-0.17-0.77-0.31-1.16-0.45
			c-0.09-0.03-0.18-0.06-0.27-0.09c-0.36-0.12-0.72-0.22-1.07-0.31c-0.04-0.01-0.08-0.02-0.12-0.03c-0.38-0.09-0.76-0.16-1.14-0.21
			c-0.09-0.01-0.18-0.02-0.27-0.03c-0.38-0.04-0.76-0.07-1.14-0.08c-0.3,0-0.61,0.03-0.9,0.09c-0.1,0.02-0.19,0.06-0.29,0.08
			c-0.2,0.05-0.39,0.11-0.59,0.19c-0.11,0.05-0.23,0.11-0.34,0.16c-0.17,0.08-0.35,0.17-0.52,0.27c-0.12,0.07-0.23,0.15-0.35,0.23
			c-0.16,0.11-0.32,0.23-0.48,0.36c-0.11,0.09-0.23,0.2-0.34,0.3c-0.16,0.14-0.31,0.29-0.46,0.44c-0.11,0.11-0.22,0.23-0.34,0.36
			c-0.15,0.17-0.3,0.34-0.45,0.53c-0.1,0.13-0.21,0.26-0.31,0.4c-0.15,0.2-0.3,0.4-0.44,0.61c-0.1,0.14-0.2,0.28-0.29,0.43
			c-0.15,0.23-0.3,0.48-0.45,0.72c-0.09,0.14-0.17,0.28-0.26,0.43c-0.17,0.29-0.33,0.59-0.49,0.9c-0.06,0.12-0.12,0.23-0.19,0.34
			c-0.22,0.43-0.44,0.87-0.65,1.33c-0.04,0.08-0.07,0.17-0.11,0.25c-0.17,0.38-0.34,0.76-0.51,1.15c-0.07,0.17-0.14,0.34-0.21,0.51
			c-0.13,0.32-0.26,0.63-0.38,0.96c-0.08,0.2-0.15,0.4-0.22,0.6c-0.11,0.3-0.22,0.61-0.33,0.92c-0.08,0.21-0.15,0.43-0.22,0.65
			c-0.1,0.3-0.2,0.6-0.3,0.91c-0.08,0.23-0.15,0.45-0.21,0.68c-0.1,0.3-0.19,0.61-0.28,0.91c-0.07,0.23-0.14,0.46-0.2,0.69
			c-0.09,0.31-0.18,0.62-0.26,0.93c-0.06,0.23-0.13,0.45-0.18,0.67c-0.09,0.32-0.17,0.64-0.25,0.95c-0.06,0.22-0.11,0.43-0.17,0.65
			c-0.08,0.34-0.16,0.67-0.24,1c-0.04,0.19-0.09,0.39-0.14,0.58c-0.09,0.4-0.17,0.8-0.26,1.19c-0.03,0.12-0.06,0.25-0.08,0.37
			c-0.11,0.52-0.21,1.02-0.31,1.53c-0.03,0.15-0.05,0.3-0.08,0.45c-0.06,0.35-0.13,0.7-0.19,1.04c-0.01,0.06-0.02,0.12-0.03,0.18
			c-0.06,0.34-0.11,0.69-0.17,1.02c-0.01,0.08-0.02,0.15-0.04,0.23c-0.02,0.13-0.04,0.26-0.06,0.39c-0.03,0.19-0.06,0.38-0.08,0.56
			c-0.02,0.13-0.04,0.26-0.05,0.39c0,0.02-0.01,0.04-0.01,0.05c-0.01,0.08-0.02,0.17-0.04,0.25c-0.02,0.16-0.04,0.32-0.06,0.48
			c-0.01,0.11-0.03,0.23-0.04,0.34c-0.01,0.11-0.03,0.22-0.04,0.33c-0.01,0.11-0.02,0.21-0.03,0.31c-0.01,0.13-0.03,0.27-0.04,0.4
			c0,0.02,0,0.04-0.01,0.06c-0.01,0.14-0.02,0.27-0.04,0.41c-0.01,0.08-0.01,0.16-0.02,0.24c-0.01,0.09-0.01,0.18-0.02,0.26
			c-0.01,0.09-0.01,0.18-0.02,0.26c-0.01,0.15-0.02,0.3-0.03,0.44c0,0.07-0.01,0.14-0.01,0.21c0,0,0,0.01,0,0.01
			c0,0.08-0.01,0.16-0.01,0.23c-0.01,0.17-0.01,0.32-0.01,0.48c0,0.07,0,0.13,0,0.19c0,0.27,0,0.52,0.01,0.75c0,0.03,0,0.05,0,0.07
			c0,0.05,0.01,0.09,0.01,0.13c0.01,0.15,0.02,0.3,0.04,0.43c0.01,0.05,0.01,0.1,0.02,0.14c0.02,0.18,0.05,0.34,0.09,0.47
			c0,0.02,0.01,0.03,0.01,0.04C16.62,97.41,16.66,97.5,16.7,97.57z"/>
		<g>
			<path class="st11" d="M15.59,94.2c1.65,0.43,2.35-11.71,13.39-10.35c17.22,2.11,36.63,24.2,38.99,21.83
				c2.37-2.37-21.12-47.32-38.76-47.48C19.01,58.1,13.29,93.6,15.59,94.2z"/>
			<path class="st12" d="M30.14,63.61c12.72-0.05,28.04,20.69,35.72,34.69C59.81,84.95,42.78,58.32,29.21,58.2
				c-9.24-0.08-14.81,29.07-14.05,34.97C16.65,82.69,22.25,63.64,30.14,63.61z"/>
			<path class="st13" d="M27.44,76.77c-7.19-0.88-10,3.97-11.53,7.33c-0.96,5.57-1.11,9.88-0.32,10.09
				c1.65,0.43,2.35-11.71,13.39-10.35c17.22,2.11,36.63,24.2,38.99,21.83c0.52-0.52-0.23-3.15-1.9-6.91
				C62.55,99.27,43.99,78.8,27.44,76.77z"/>
		</g>
	</g>
	<g>
		<g>
			
				<radialGradient id="SVGID_22_" cx="190.7421" cy="-144.3206" r="68.1214" gradientTransform="matrix(0.9425 -0.3341 0.3341 0.9425 7.2115 304.6935)" gradientUnits="userSpaceOnUse">
				<stop  offset="0.179" style="stop-color:#FFB848"/>
				<stop  offset="0.2302" style="stop-color:#FCB344"/>
				<stop  offset="0.7423" style="stop-color:#E28621"/>
				<stop  offset="1" style="stop-color:#D87413"/>
			</radialGradient>
			<path class="st27" d="M113.18,145.28c4.56,19.3,18.85,31.67,31.92,27.59c13.06-4.09,19.94-23.05,15.38-42.38
				c-4.56-19.32-18.86-31.66-31.9-27.58C115.51,106.99,108.62,125.96,113.18,145.28z"/>
			
				<radialGradient id="SVGID_23_" cx="188.0043" cy="-143.8642" r="59.5613" gradientTransform="matrix(0.9425 -0.3341 0.3341 0.9425 7.2115 304.6935)" gradientUnits="userSpaceOnUse">
				<stop  offset="0" style="stop-color:#FFB848"/>
				<stop  offset="0.107" style="stop-color:#FBB43F"/>
				<stop  offset="0.7011" style="stop-color:#E7A212"/>
				<stop  offset="1" style="stop-color:#DF9B00"/>
			</radialGradient>
			<path class="st28" d="M114.55,141.54c3.96,16.46,16.89,26.82,28.88,23.18c11.99-3.65,18.52-19.94,14.57-36.38
				c-3.96-16.45-16.89-26.82-28.9-23.17C117.12,108.81,110.59,125.11,114.55,141.54z"/>
			
				<linearGradient id="SVGID_24_" gradientUnits="userSpaceOnUse" x1="130.8807" y1="97.9346" x2="102.2481" y2="58.0542" gradientTransform="matrix(1.0582 -0.0495 0.057 1.0846 17.3834 68.0073)">
				<stop  offset="0.4051" style="stop-color:#FFFFFF"/>
				<stop  offset="0.7697" style="stop-color:#D3BA1C"/>
				<stop  offset="0.7755" style="stop-color:#D2B81B"/>
				<stop  offset="0.9249" style="stop-color:#B78B08"/>
				<stop  offset="1" style="stop-color:#AC7900"/>
			</linearGradient>
			<path class="st29" d="M123.78,144.95c2.93,12.19,12.53,19.89,21.42,17.18c8.9-2.7,13.73-14.8,10.8-26.98
				c-2.92-12.2-12.52-19.88-21.42-17.19C125.7,120.67,120.86,132.75,123.78,144.95z"/>
			
				<radialGradient id="SVGID_25_" cx="180.629" cy="-113.802" r="20.5963" gradientTransform="matrix(0.9425 -0.3341 0.3341 0.9425 7.2115 304.6935)" gradientUnits="userSpaceOnUse">
				<stop  offset="0" style="stop-color:#AC7900"/>
				<stop  offset="0.3262" style="stop-color:#B78B08"/>
				<stop  offset="0.9748" style="stop-color:#D2B81B"/>
				<stop  offset="1" style="stop-color:#D3BA1C"/>
			</radialGradient>
			<path class="st30" d="M126.67,144.64c2.36,9.8,10.07,15.98,17.2,13.8c7.15-2.17,11.04-11.88,8.68-21.67
				c-2.35-9.8-10.06-15.97-17.21-13.81C128.21,125.14,124.33,134.84,126.67,144.64z"/>
			
				<radialGradient id="SVGID_26_" cx="146.858" cy="-227.9166" r="64.5153" gradientTransform="matrix(1.0043 -0.338 0.3382 1.0318 79.9025 483.2613)" gradientUnits="userSpaceOnUse">
				<stop  offset="0" style="stop-color:#FFB848"/>
				<stop  offset="0.21" style="stop-color:#D49837"/>
				<stop  offset="0.5903" style="stop-color:#8A6319"/>
				<stop  offset="0.8633" style="stop-color:#5D4207"/>
				<stop  offset="1" style="stop-color:#4B3500"/>
			</radialGradient>
			<path class="st31" d="M129.83,143.35c1.77,7.39,7.58,12.05,12.96,10.4c5.38-1.64,8.31-8.95,6.53-16.33
				c-1.77-7.37-7.58-12.03-12.96-10.39C130.99,128.67,128.07,135.98,129.83,143.35z"/>
		</g>
		<path class="st24" d="M129.94,113.65c-0.04-0.05-0.07-0.1-0.11-0.15c-0.74-1.49-1.91-2.33-3.25-2.59
			c-0.64-0.16-1.32-0.14-1.96,0.01c-0.83,0.14-1.67,0.44-2.45,0.91c-1.25,0.76-2.42,1.93-3.38,3.31c-0.75,0.93-1.4,1.93-1.85,2.84
			c-2.22,4.36-3.01,12.51,2.64,14.58c5.79,2.14,9.4-6.06,10.4-10.42c0.4-1.7,0.73-3.69,0.63-5.58
			C130.6,115.47,130.42,114.43,129.94,113.65z"/>
		<path class="st24" d="M121.51,138.42c-0.74-0.57-1.65-0.39-2.41,0.08c-0.51,0.09-1.03,0.34-1.44,0.76
			c-1.14,1.18-1.44,3.09-1.32,4.69c0.17,2,1.75,4.09,3.9,3.33C123.44,146.17,124.09,140.45,121.51,138.42z"/>
	</g>
	<path class="st4" d="M169.8,199.73c0,0,2.61-25.42,21.83-38.78C191.64,160.95,175.02,178.87,169.8,199.73z"/>
</g>
</svg>
